<?xml version="1.0" encoding="UTF-8"?>
<!DOCTYPE svg PUBLIC "-//W3C//DTD SVG 1.1//EN" "http://www.w3.org/Graphics/SVG/1.1/DTD/svg11.dtd">
<svg xmlns="http://www.w3.org/2000/svg" xmlns:xlink="http://www.w3.org/1999/xlink" version="1.1" width="850px" height="420px" viewBox="-0.5 -0.5 850 420" style="background-color: rgb(255, 255, 255);">
  <defs>
    <!-- GitHub Octocat icon -->
    <g id="github-mark">
      <path d="M12 0C5.37 0 0 5.37 0 12c0 5.31 3.435 9.795 8.205 11.385.6.105.825-.255.825-.57 0-.285-.015-1.23-.015-2.235-3.015.555-3.795-.735-4.035-1.41-.135-.345-.72-1.41-1.23-1.695-.42-.225-1.02-.78-.015-.795.945-.015 1.62.87 1.845 1.23 1.08 1.815 2.805 1.305 3.495.99.105-.78.42-1.305.765-1.605-2.67-.3-5.46-1.335-5.46-5.925 0-1.305.465-2.385 1.23-3.225-.12-.3-.54-1.53.12-3.18 0 0 1.005-.315 3.3 1.23.96-.27 1.98-.405 3-.405s2.04.135 3 .405c2.295-1.56 3.3-1.23 3.3-1.23.66 1.65.24 2.88.12 3.18.765.84 1.23 1.905 1.23 3.225 0 4.605-2.805 5.625-5.475 5.925.435.375.81 1.095.81 2.22 0 1.605-.015 2.895-.015 3.3 0 .315.225.69.825.57A12.02 12.02 0 0024 12c0-6.63-5.37-12-12-12z" fill="#24292f"/>
    </g>

    <!-- Azure Static Web Apps icon (from official) -->
    <g id="azure-swa">
      <defs><linearGradient id="swa-grad1" x1="9" y1="16.236" x2="9" y2="5.599" gradientUnits="userSpaceOnUse"><stop offset="0" stop-color="#005ba1" /><stop offset="0.775" stop-color="#0078d4" /></linearGradient></defs>
      <path d="M0,5.6H18a0,0,0,0,1,0,0V15.635a.6.6,0,0,1-.6.6H.6a.6.6,0,0,1-.6-.6V5.6A0,0,0,0,1,0,5.6Z" fill="url(#swa-grad1)" />
      <rect x="1.309" y="6.657" width="15.527" height="8.514" rx="0.6" fill="#5ea0ef" opacity="0.6" />
      <path d="M.6,1.764H17.4a.6.6,0,0,1,.6.6V5.6a0,0,0,0,1,0,0H0a0,0,0,0,1,0,0V2.365A.6.6,0,0,1,.6,1.764Z" fill="#005ba1" />
      <path d="M7.109,13.217l-.321.32a.144.144,0,0,1-.205,0L4.258,11.205a.29.29,0,0,1,0-.41l.321-.32L7.11,13.012A.145.145,0,0,1,7.109,13.217Zm3.653,0,.321.32a.144.144,0,0,0,.205,0l2.325-2.332a.29.29,0,0,0,0-.41l-.322-.32-2.53,2.537A.145.145,0,0,0,10.762,13.217Z" fill="#fff" opacity="0.8" />
      <path d="M6.831,8.433l.32.321a.144.144,0,0,1,0,.205L4.576,11.527l-.32-.322a.289.289,0,0,1,0-.41l2.37-2.363A.145.145,0,0,1,6.831,8.433Zm4.207,0-.32.321a.144.144,0,0,0,0,.205l2.575,2.568.32-.321a.292.292,0,0,0,0-.411l-2.37-2.362A.144.144,0,0,0,11.038,8.434Z" fill="#fff" />
      <path d="M8.159,14.363,7.646,14.2a.105.105,0,0,1-.067-.131L9.669,7.54a.1.1,0,0,1,.13-.067l.513.164a.1.1,0,0,1,.067.13L8.289,14.3A.1.1,0,0,1,8.159,14.363Z" fill="#fff" />
      <path d="M3.166,3.847a.76.76,0,1,1-.76-.76A.76.76,0,0,1,3.166,3.847ZM4.8,3.087a.76.76,0,1,0,.76.76A.76.76,0,0,0,4.8,3.087Zm2.393,0a.76.76,0,1,0,.76.76A.76.76,0,0,0,7.191,3.087Z" fill="#fff" />
    </g>

    <!-- Azure Managed Identity icon (from official) -->
    <g id="azure-mi">
      <defs>
        <linearGradient id="mi-grad1" x1="7.697" y1="12.348" x2="14.082" y2="4.885" gradientUnits="userSpaceOnUse"><stop offset="0" stop-color="#225086" /><stop offset="1" stop-color="#0055c5" /></linearGradient>
        <linearGradient id="mi-grad2" x1="6.364" y1="13.352" x2="6.364" y2="-2.896" gradientUnits="userSpaceOnUse"><stop offset="0" stop-color="#6df" /><stop offset="1" stop-color="#0294e4" /></linearGradient>
        <linearGradient id="mi-grad3" x1="9.001" y1="15.56" x2="9.001" y2="-3.329" gradientUnits="userSpaceOnUse"><stop offset="0" stop-color="#44dbf9" /><stop offset="1" stop-color="#cbf8ff" /></linearGradient>
      </defs>
      <path d="m17.647,9.906L10.147,1.445c-.599-.676-1.694-.676-2.294,0L.353,9.906c-.579.654-.428,1.641.323,2.111l7.499,4.688c.5.313,1.148.313,1.648,0l7.499-4.688c.751-.469.902-1.457.323-2.111h0Z" fill="url(#mi-grad1)" />
      <path d="m10.148,1.445c-.599-.676-1.694-.676-2.294,0L.354,9.906c-.579.654-.428,1.641.323,2.111,0,0,2.776,1.735,3.126,1.954.388.242,1.033.511,1.715.511.621,0,1.197-.18,1.676-.487,0,0,0,0,.002-.001l1.804-1.128-4.364-2.728,4.474-5.047c.55-.627,1.377-1.026,2.302-1.026.472,0,.917.107,1.314.292l-2.579-2.909v-.002Z" fill="url(#mi-grad2)" />
      <polygon points="4.636 10.138 4.688 10.17 9.001 12.866 9.001 12.866 13.365 10.138 13.366 10.138 13.365 10.138 9.001 5.214 4.636 10.138" fill="url(#mi-grad3)" />
      <path id="mi-key" d="m16.512,10.831c.464-.458.468-1.206.01-1.67-.003-.003-.006-.006-.01-.01h0l-2.035-2.035c-.461-.461-1.208-.461-1.669,0h0l-2.035,2.035c-.456.467-.456,1.213,0,1.679l1.7,1.7c.061.063.094.147.092.234v3.155c-.003.108.041.213.122.285l.773.773c.095.104.255.112.359.017.006-.005.012-.011.017-.017l.743-.743h0l.448-.448c.058-.059.058-.154,0-.214l-.316-.315c-.067-.059-.074-.162-.014-.23.005-.005.009-.01.014-.014l.316-.316c.059-.063.059-.161,0-.224l-.316-.316c-.065-.054-.073-.15-.019-.215.006-.007.012-.013.019-.019l.316-.326c.058-.059.058-.154,0-.214l-.448-.448v-.163l1.934-1.944Zm-2.87-3.226c.371,0,.672.301.672.672s-.301.672-.672.672-.672-.301-.672-.672h0c0-.371.301-.672.672-.672Z" fill="#ffca00" />
    </g>

    <!-- Azure Resource Group icon (from official) -->
    <g id="azure-rg">
      <path d="M.5,15.08a.16.16,0,0,0,.08.14l1.16.65L3.7,17a.17.17,0,0,0,.23-.06l.66-1.12a.16.16,0,0,0-.06-.21l-2.3-1.3a.17.17,0,0,1-.08-.14V3.85a.16.16,0,0,1,.08-.14l2.3-1.3a.16.16,0,0,0,.06-.21L3.93,1.08A.17.17,0,0,0,3.7,1L1.78,2.11l-1.2.67a.16.16,0,0,0-.08.14V15.08Z" fill="#949494" />
      <path d="M2.14,3.77l.06-.06,2.3-1.3a.14.14,0,0,0,.06-.21L3.9,1.08A.15.15,0,0,0,3.68,1L1.75,2.11.56,2.78s-.05,0-.06.06l.9.51Z" fill="#a3a3a3" />
      <path d="M4.5,15.59l-2.3-1.3a.22.22,0,0,1-.07-.09l-1.62,1,.05,0,1.15.65,2,1.11a.15.15,0,0,0,.22-.06l.66-1.12A.14.14,0,0,0,4.5,15.59Z" fill="#a3a3a3" />
      <path d="M17.5,15.08a.16.16,0,0,1-.08.14l-1.16.65L14.3,17a.17.17,0,0,1-.23-.06l-.66-1.12a.16.16,0,0,1,.06-.21l2.3-1.3a.17.17,0,0,0,.08-.14V3.85a.16.16,0,0,0-.08-.14l-2.3-1.3a.16.16,0,0,1-.06-.21l.66-1.12A.17.17,0,0,1,14.3,1l1.92,1.09,1.2.67a.16.16,0,0,1,.08.14V15.08Z" fill="#949494" />
      <path d="M15.86,3.77l-.06-.06-2.3-1.3a.14.14,0,0,1-.06-.21l.66-1.12A.15.15,0,0,1,14.32,1l1.93,1.09,1.19.67s0,0,.06.06l-.9.51Z" fill="#a3a3a3" />
      <path d="M13.5,15.59l2.3-1.3a.22.22,0,0,0,.07-.09l1.62,1,0,0-1.15.65-2,1.11a.15.15,0,0,1-.22-.06l-.66-1.12A.14.14,0,0,1,13.5,15.59Z" fill="#a3a3a3" />
      <polygon points="14.31 5.93 14.31 12.07 8.99 15.16 8.99 9.01 14.31 5.93" fill="#32bedd" />
      <polygon points="14.31 5.93 9 9.02 3.68 5.93 9 2.84 14.31 5.93" fill="#9cebff" />
      <polygon points="8.99 9.02 8.99 15.16 3.68 12.07 3.68 5.93 8.99 9.02" fill="#50e6ff" />
      <polygon points="3.68 12.07 8.99 9.01 8.99 15.16 3.68 12.07" fill="#9cebff" />
      <polygon points="14.31 12.07 8.99 9.01 8.99 15.16 14.31 12.07" fill="#50e6ff" />
    </g>

    <!-- Azure Key Vault icon (for OIDC/credential) -->
    <g id="azure-keyvault">
      <defs>
        <radialGradient id="kv-grad1" cx="9" cy="9" r="8.5" gradientUnits="userSpaceOnUse"><stop offset="0.18" stop-color="#5ea0ef" /><stop offset="0.56" stop-color="#5c9fee" /><stop offset="0.69" stop-color="#559ced" /><stop offset="0.78" stop-color="#4a97e9" /><stop offset="0.86" stop-color="#3990e4" /><stop offset="0.93" stop-color="#2387de" /><stop offset="0.99" stop-color="#087bd6" /><stop offset="1" stop-color="#0078d4" /></radialGradient>
        <radialGradient id="kv-grad2" cx="9.62" cy="17.74" r="9.88" gradientUnits="userSpaceOnUse"><stop offset="0.27" stop-color="#ffd70f" /><stop offset="0.49" stop-color="#ffcb12" /><stop offset="0.88" stop-color="#feac19" /><stop offset="1" stop-color="#fea11b" /></radialGradient>
      </defs>
      <path d="M9,.5A8.5,8.5,0,1,0,17.5,9,8.51,8.51,0,0,0,9,.5ZM9,16.34A7.34,7.34,0,1,1,16.34,9,7.34,7.34,0,0,1,9,16.34Z" fill="url(#kv-grad1)" />
      <circle cx="9" cy="9" r="7.34" fill="#fff" />
      <path d="M13.44,7.33a1.84,1.84,0,0,0,0-2.59h0L10.29,1.58a1.83,1.83,0,0,0-2.58,0h0L4.56,4.74a1.84,1.84,0,0,0,0,2.59L7.18,10a.51.51,0,0,1,.15.36v4.88a.63.63,0,0,0,.18.44l1.2,1.2a.41.41,0,0,0,.58,0l1.16-1.16h0l.68-.68a.25.25,0,0,0,0-.34l-.49-.49a.27.27,0,0,1,0-.37l.49-.49a.25.25,0,0,0,0-.34l-.49-.49a.27.27,0,0,1,0-.37l.49-.49a.25.25,0,0,0,0-.34l-.68-.69v-.25ZM9,2.35A1,1,0,0,1,9,4.42,1,1,0,1,1,9,2.35Z" fill="url(#kv-grad2)" />
      <path d="M8.18,15.3h0a.23.23,0,0,0,.38-.17v-4a.24.24,0,0,0-.11-.2h0a.22.22,0,0,0-.34.2v4A.28.28,0,0,0,8.18,15.3Z" fill="#ff9300" opacity="0.75" />
      <rect x="6.48" y="5.79" width="5.17" height="0.61" rx="0.28" fill="#ff9300" opacity="0.75" />
      <rect x="6.48" y="6.78" width="5.17" height="0.61" rx="0.28" fill="#ff9300" opacity="0.75" />
    </g>

    <!-- Azure RBAC icon -->
    <g id="azure-rbac">
      <defs>
        <linearGradient id="rbac-grad1" x1="7.93" y1="17.95" x2="7.93" y2="5.62" gradientUnits="userSpaceOnUse"><stop offset="0" stop-color="#5e9624" /><stop offset="1" stop-color="#b4ec36" /></linearGradient>
        <linearGradient id="rbac-grad2" x1="7.95" y1="9.21" x2="7.95" y2="-2.02" gradientUnits="userSpaceOnUse"><stop offset="0" stop-color="#5e9624" /><stop offset="1" stop-color="#b4ec36" /></linearGradient>
      </defs>
      <path d="M14,16.85a1.3,1.3,0,0,0,1.32-1.31.81.81,0,0,0,0-.16c-.52-4.15-2.88-7.53-7.4-7.53S1,10.71.51,15.39A1.34,1.34,0,0,0,1.7,16.85H14Z" fill="url(#rbac-grad1)" />
      <path d="M8,8.83a4.16,4.16,0,0,1-2.26-.66L7.92,14l2.22-5.79A4.2,4.2,0,0,1,8,8.83Z" fill="#fff" />
      <circle cx="7.95" cy="4.67" r="4.17" fill="url(#rbac-grad2)" />
      <polygon points="17.49 11.13 17.49 15.37 13.85 17.5 13.85 13.26 17.49 11.13" fill="#32bedd" />
      <polygon points="17.49 11.13 13.85 13.26 10.21 11.13 13.85 9 17.49 11.13" fill="#9cebff" />
      <polygon points="13.85 13.26 13.85 17.5 10.21 15.37 10.21 11.13 13.85 13.26" fill="#50e6ff" />
      <polygon points="10.21 15.37 13.85 13.26 13.85 17.5 10.21 15.37" fill="#9cebff" />
      <polygon points="17.49 15.37 13.85 13.26 13.85 17.5 17.49 15.37" fill="#50e6ff" />
    </g>

    <!-- Arrow markers -->
    <marker id="arrow-gray" markerWidth="10" markerHeight="7" refX="9" refY="3.5" orient="auto"><polygon points="0 0, 10 3.5, 0 7" fill="#57606a"/></marker>
    <marker id="arrow-green" markerWidth="10" markerHeight="7" refX="9" refY="3.5" orient="auto"><polygon points="0 0, 10 3.5, 0 7" fill="#1a7f37"/></marker>
    <marker id="arrow-blue" markerWidth="10" markerHeight="7" refX="9" refY="3.5" orient="auto"><polygon points="0 0, 10 3.5, 0 7" fill="#0078D4"/></marker>
    <marker id="arrow-yellow" markerWidth="10" markerHeight="7" refX="9" refY="3.5" orient="auto"><polygon points="0 0, 10 3.5, 0 7" fill="#bf8700"/></marker>
    <marker id="arrow-purple" markerWidth="10" markerHeight="7" refX="9" refY="3.5" orient="auto"><polygon points="0 0, 10 3.5, 0 7" fill="#8250df"/></marker>
  </defs>

  <!-- ========== User ========== -->
  <g transform="translate(20,155)">
    <ellipse cx="20" cy="12" rx="12" ry="12" fill="#dae8fc" stroke="#6c8ebf" stroke-width="2"/>
    <path d="M 20 24 L 20 55 M 0 38 L 40 38 M 20 55 L 0 80 M 20 55 L 40 80" fill="none" stroke="#6c8ebf" stroke-width="2"/>
    <text x="20" y="100" text-anchor="middle" font-size="12" font-family="Segoe UI, Arial" font-weight="bold">ユーザー</text>
  </g>

  <!-- ========== GitHub Container ========== -->
  <rect x="100" y="20" width="340" height="380" rx="10" ry="10" fill="#f6f8fa" stroke="#d0d7de" stroke-width="2"/>
  <g transform="translate(110,30)">
    <use href="#github-mark" transform="scale(1.2)"/>
    <text x="35" y="18" font-size="16" font-family="Segoe UI, Arial" font-weight="bold" fill="#24292f">GitHub</text>
  </g>

  <!-- Repository Sub-container -->
  <rect x="115" y="70" width="150" height="200" rx="6" ry="6" fill="#ffffff" stroke="#d0d7de" stroke-width="1"/>
  <text x="125" y="90" font-size="12" font-family="Segoe UI, Arial" font-weight="bold" fill="#24292f">リポジトリ</text>

  <!-- Source -->
  <rect x="125" y="105" width="130" height="45" rx="6" ry="6" fill="#f6f8fa" stroke="#d0d7de" stroke-width="1"/>
  <text x="190" y="123" text-anchor="middle" font-size="10" font-family="Segoe UI, Arial" fill="#24292f">ソースコード</text>
  <text x="190" y="140" text-anchor="middle" font-size="9" font-family="Segoe UI, Arial" fill="#57606a">docs/ | mkdocs.yml</text>

  <!-- Deploy Site -->
  <rect x="125" y="160" width="130" height="45" rx="6" ry="6" fill="#ddf4ff" stroke="#54aeff" stroke-width="1"/>
  <g transform="translate(130,168)"><circle cx="10" cy="10" r="8" fill="#2088ff"/><path d="M6 10 L9 13 L14 7" stroke="white" stroke-width="2" fill="none"/></g>
  <text x="200" y="183" text-anchor="middle" font-size="10" font-family="Segoe UI, Arial" fill="#24292f">Deploy Site</text>
  <text x="200" y="196" text-anchor="middle" font-size="9" font-family="Segoe UI, Arial" fill="#57606a">GitHub Actions</text>

  <!-- Sync Role -->
  <rect x="125" y="215" width="130" height="45" rx="6" ry="6" fill="#ddf4ff" stroke="#54aeff" stroke-width="1"/>
  <g transform="translate(130,223)"><circle cx="10" cy="10" r="8" fill="#2088ff"/><path d="M6 10 L9 13 L14 7" stroke="white" stroke-width="2" fill="none"/></g>
  <text x="200" y="238" text-anchor="middle" font-size="10" font-family="Segoe UI, Arial" fill="#24292f">Sync Role</text>
  <text x="200" y="251" text-anchor="middle" font-size="9" font-family="Segoe UI, Arial" fill="#57606a">GitHub Actions</text>

  <!-- GitHub Services Sub-container -->
  <rect x="275" y="70" width="155" height="200" rx="6" ry="6" fill="#ffffff" stroke="#d0d7de" stroke-width="1"/>
  <text x="285" y="90" font-size="12" font-family="Segoe UI, Arial" font-weight="bold" fill="#24292f">GitHub サービス</text>

  <!-- GitHub Pages -->
  <rect x="285" y="105" width="135" height="45" rx="6" ry="6" fill="#dafbe1" stroke="#4ac26b" stroke-width="1"/>
  <g transform="translate(290,113)"><rect x="0" y="0" width="20" height="24" rx="2" fill="#1a7f37"/><rect x="3" y="4" width="14" height="2" fill="white"/><rect x="3" y="9" width="10" height="2" fill="white"/><rect x="3" y="14" width="12" height="2" fill="white"/></g>
  <text x="360" y="123" text-anchor="middle" font-size="10" font-family="Segoe UI, Arial" fill="#24292f">GitHub Pages</text>
  <text x="360" y="140" text-anchor="middle" font-size="8" font-family="Segoe UI, Arial" fill="#57606a">(Enterprise: 認証付き)</text>

  <!-- GitHub Discussions -->
  <rect x="285" y="160" width="135" height="45" rx="6" ry="6" fill="#dafbe1" stroke="#4ac26b" stroke-width="1"/>
  <g transform="translate(290,168)"><ellipse cx="12" cy="10" rx="10" ry="8" fill="#1a7f37"/><path d="M7 18 L5 24 L12 18" fill="#1a7f37"/><circle cx="8" cy="10" r="1.5" fill="white"/><circle cx="12" cy="10" r="1.5" fill="white"/><circle cx="16" cy="10" r="1.5" fill="white"/></g>
  <text x="360" y="180" text-anchor="middle" font-size="10" font-family="Segoe UI, Arial" fill="#24292f">Discussions</text>
  <text x="360" y="196" text-anchor="middle" font-size="8" font-family="Segoe UI, Arial" fill="#57606a">(招待通知)</text>

  <!-- GitHub App -->
  <rect x="285" y="215" width="135" height="45" rx="6" ry="6" fill="#dafbe1" stroke="#4ac26b" stroke-width="1"/>
  <g transform="translate(290,223)"><rect x="2" y="2" width="20" height="20" rx="4" fill="#1a7f37"/><circle cx="9" cy="10" r="2" fill="white"/><circle cx="15" cy="10" r="2" fill="white"/><path d="M8 16 Q12 19 16 16" stroke="white" stroke-width="1.5" fill="none"/></g>
  <text x="360" y="243" text-anchor="middle" font-size="10" font-family="Segoe UI, Arial" fill="#24292f">GitHub App</text>

  <!-- ========== Azure Container ========== -->
  <rect x="480" y="20" width="350" height="380" rx="10" ry="10" fill="#f0f6ff" stroke="#0078D4" stroke-width="2"/>
  <g transform="translate(490,28)">
    <path d="M13.05 4.24L6.56 18.05 2 18.05 8.5 4.24 13.05 4.24zM22 18.05L13.05 4.24 9.5 18.05 13.8 18.05 10.5 22 22 18.05z" fill="#0078D4" transform="scale(1.2)"/>
    <text x="35" y="18" font-size="16" font-family="Segoe UI, Arial" font-weight="bold" fill="#0078D4">Azure</text>
  </g>

  <!-- Resource Group Sub-container -->
  <rect x="495" y="70" width="160" height="200" rx="6" ry="6" fill="#ffffff" stroke="#0078D4" stroke-width="1" stroke-dasharray="4,2"/>
  <g transform="translate(502,78)"><use href="#azure-rg" transform="scale(0.9)"/></g>
  <text x="522" y="90" font-size="11" font-family="Segoe UI, Arial" font-weight="bold" fill="#0078D4">Resource Group</text>

  <!-- Static Web App with official icon -->
  <rect x="508" y="105" width="135" height="55" rx="6" ry="6" fill="#e6f2ff" stroke="#0078D4" stroke-width="1"/>
  <g transform="translate(515,115)"><use href="#azure-swa" transform="scale(1.8)"/></g>
  <text x="590" y="138" text-anchor="middle" font-size="10" font-family="Segoe UI, Arial" fill="#0078D4">Static Web App</text>

  <!-- Managed Identity with official icon -->
  <rect x="508" y="175" width="135" height="55" rx="6" ry="6" fill="#e6f2ff" stroke="#0078D4" stroke-width="1"/>
  <g transform="translate(515,182)"><use href="#azure-mi" transform="scale(1.8)"/></g>
  <text x="590" y="208" text-anchor="middle" font-size="10" font-family="Segoe UI, Arial" fill="#0078D4">Managed Identity</text>

  <!-- Security Sub-container -->
  <rect x="665" y="70" width="155" height="150" rx="6" ry="6" fill="#ffffff" stroke="#0078D4" stroke-width="1" stroke-dasharray="4,2"/>
  <text x="675" y="90" font-size="11" font-family="Segoe UI, Arial" font-weight="bold" fill="#0078D4">セキュリティ</text>

  <!-- Federated Credential with Key Vault icon -->
  <rect x="675" y="105" width="135" height="50" rx="6" ry="6" fill="#fff8e6" stroke="#ffb900" stroke-width="1"/>
  <g transform="translate(682,112)"><use href="#azure-keyvault" transform="scale(1.8)"/></g>
  <text x="755" y="130" text-anchor="middle" font-size="9" font-family="Segoe UI, Arial" fill="#996600">Federated Credential</text>
  <text x="755" y="145" text-anchor="middle" font-size="9" font-family="Segoe UI, Arial" fill="#996600">OIDC</text>

  <!-- RBAC with official icon -->
  <rect x="675" y="165" width="135" height="45" rx="6" ry="6" fill="#e6ffe6" stroke="#5e9624" stroke-width="1"/>
  <g transform="translate(682,168)"><use href="#azure-rbac" transform="scale(1.6)"/></g>
  <text x="755" y="193" text-anchor="middle" font-size="10" font-family="Segoe UI, Arial" fill="#5e9624">RBAC</text>

  <!-- ========== ARROWS ========== -->

  <!-- User to Source -->
  <path d="M 60 175 L 85 175 L 85 127 L 125 127" fill="none" stroke="#57606a" stroke-width="1.5" marker-end="url(#arrow-gray)"/>
  <text x="80" y="148" font-size="9" font-family="Segoe UI, Arial" fill="#57606a">git push / PR</text>

  <!-- User to Pages -->
  <path d="M 40 155 L 40 35 L 285 35 L 285 105" fill="none" stroke="#1a7f37" stroke-width="1.5" marker-end="url(#arrow-green)"/>
  <text x="140" y="28" font-size="9" font-family="Segoe UI, Arial" fill="#1a7f37">閲覧（認証付き）</text>

  <!-- User to SWA -->
  <path d="M 60 235 L 60 390 L 575 390 L 575 160" fill="none" stroke="#0078D4" stroke-width="1.5" marker-end="url(#arrow-blue)"/>
  <text x="300" y="385" font-size="9" font-family="Segoe UI, Arial" fill="#0078D4">閲覧（認証付き）</text>

  <!-- User to Discussions -->
  <path d="M 40 255 L 40 360 L 270 360 L 270 182 L 285 182" fill="none" stroke="#bf8700" stroke-width="1.5" marker-end="url(#arrow-yellow)"/>
  <text x="130" y="355" font-size="9" font-family="Segoe UI, Arial" fill="#bf8700">招待承認</text>

  <!-- Source to Deploy Site -->
  <path d="M 190 150 L 190 160" fill="none" stroke="#8250df" stroke-width="1.5" marker-end="url(#arrow-purple)"/>
  <text x="200" y="158" font-size="9" font-family="Segoe UI, Arial" fill="#8250df">トリガー</text>

  <!-- Deploy Site to Pages -->
  <path d="M 255 175 L 270 175 L 270 127 L 285 127" fill="none" stroke="#1a7f37" stroke-width="1.5" marker-end="url(#arrow-green)"/>
  <text x="262" y="148" font-size="9" font-family="Segoe UI, Arial" fill="#1a7f37">デプロイ</text>

  <!-- Deploy Site to SWA -->
  <path d="M 255 190 L 470 190 L 470 132 L 508 132" fill="none" stroke="#0078D4" stroke-width="1.5" marker-end="url(#arrow-blue)"/>
  <text x="360" y="185" font-size="9" font-family="Segoe UI, Arial" fill="#0078D4">デプロイ</text>

  <!-- Sync Role to Federated Credential -->
  <path d="M 255 230 L 470 230 L 470 290 L 660 290 L 660 130 L 675 130" fill="none" stroke="#996600" stroke-width="1.5" marker-end="url(#arrow-yellow)"/>
  <text x="555" y="285" font-size="9" font-family="Segoe UI, Arial" fill="#996600">OIDC認証</text>

  <!-- Sync Role to GitHub App -->
  <path d="M 255 245 L 270 245 L 270 237 L 285 237" fill="none" stroke="#bf8700" stroke-width="1.5" marker-end="url(#arrow-yellow)"/>
  <text x="260" y="275" font-size="9" font-family="Segoe UI, Arial" fill="#bf8700">トークン生成</text>

  <!-- Sync Role to SWA -->
  <path d="M 190 260 L 190 310 L 480 310 L 480 140 L 508 140" fill="none" stroke="#0078D4" stroke-width="1.5" stroke-dasharray="4,2" marker-end="url(#arrow-blue)"/>
  <text x="320" y="305" font-size="9" font-family="Segoe UI, Arial" fill="#0078D4">ロール同期</text>

  <!-- Sync Role to Discussions -->
  <path d="M 220 260 L 220 280 L 352 280 L 352 205" fill="none" stroke="#bf8700" stroke-width="1.5" marker-end="url(#arrow-yellow)"/>
  <text x="280" y="290" font-size="9" font-family="Segoe UI, Arial" fill="#bf8700">招待作成</text>

  <!-- Federated Credential to Managed Identity -->
  <path d="M 675 145 L 660 145 L 660 200 L 643 200" fill="none" stroke="#0078D4" stroke-width="1.5" marker-end="url(#arrow-blue)"/>
  <text x="653" y="175" font-size="9" font-family="Segoe UI, Arial" fill="#0078D4">検証</text>

  <!-- Managed Identity to RBAC -->
  <path d="M 643 205 L 660 205 L 660 187 L 675 187" fill="none" stroke="#5e9624" stroke-width="1.5"/>
  <polygon points="675,187 669,184 669,190" fill="#5e9624"/>
  <text x="648" y="220" font-size="9" font-family="Segoe UI, Arial" fill="#5e9624">権限</text>

  <!-- RBAC to SWA -->
  <path d="M 675 180 L 660 180 L 660 135 L 643 135" fill="none" stroke="#0078D4" stroke-width="1.5" marker-end="url(#arrow-blue)"/>
  <text x="653" y="155" font-size="9" font-family="Segoe UI, Arial" fill="#0078D4">操作</text>

  <!-- Discussions to SWA -->
  <path d="M 420 182 L 470 182 L 470 145 L 508 145" fill="none" stroke="#1a7f37" stroke-width="1.5" stroke-dasharray="4,2" marker-end="url(#arrow-green)"/>
  <text x="458" y="168" font-size="9" font-family="Segoe UI, Arial" fill="#1a7f37">招待承認</text>

</svg>
